<?xml version="1.0" encoding="utf-8"?>
<!-- Generator: Adobe Illustrator 23.1.0, SVG Export Plug-In . SVG Version: 6.00 Build 0)  -->
<svg version="1.1" id="Layer_1" xmlns="http://www.w3.org/2000/svg" xmlns:xlink="http://www.w3.org/1999/xlink" x="0px" y="0px"
	 viewBox="0 0 123.32 50.04" style="enable-background:new 0 0 123.32 50.04;" xml:space="preserve">
<style type="text/css">
	.st0{fill:none;stroke:#000000;stroke-width:0.96;stroke-linecap:round;stroke-linejoin:round;stroke-miterlimit:10;}
	.st1{fill:none;stroke:#000000;stroke-width:1.92;stroke-linecap:round;stroke-linejoin:round;stroke-miterlimit:10;}
	.st2{stroke:#000000;stroke-width:0.96;stroke-linecap:round;stroke-linejoin:round;stroke-miterlimit:10;}
</style>
<g>
	<path class="st0" d="M4.42,25.12c0.99-1.72,3.48-1.72,4.48,0c0.99,1.72,3.48,1.72,4.48,0s3.48-1.72,4.48,0
		c0.99,1.72,3.48,1.72,4.48,0c0.99-1.72,3.48-1.72,4.48,0c0.99,1.72,3.48,1.72,4.48,0c0.99-1.72,3.48-1.72,4.48,0
		c0.99,1.72,3.48,1.72,4.48,0"/>
	<path class="st1" d="M42.31,23.13c0.99-9.5,9.03-16.91,18.79-16.91s17.8,7.41,18.79,16.91"/>
	<path d="M57.44,9.53c1.11-0.55,2.29-1,3.54-1.33c2.54-0.68,5.1-0.81,7.55-0.46c-1.95-1.53-4.23-2.69-6.76-3.37
		c-1.24-0.33-2.49-0.53-3.73-0.61L57.44,9.53z"/>
	<path class="st1" d="M79.9,27.11c-0.99,9.5-9.03,16.91-18.79,16.91s-17.8-7.41-18.79-16.91"/>
	<path d="M64.78,40.71c-1.11,0.55-2.29,1-3.54,1.33c-2.54,0.68-5.1,0.81-7.55,0.46c1.95,1.53,4.23,2.69,6.76,3.37
		c1.24,0.33,2.49,0.53,3.73,0.61L64.78,40.71z"/>
	<path class="st0" d="M82,25.12c0.99-1.72,3.48-1.72,4.48,0c0.99,1.72,3.48,1.72,4.48,0c0.99-1.72,3.48-1.72,4.48,0
		s3.48,1.72,4.48,0c0.99-1.72,3.48-1.72,4.48,0s3.48,1.72,4.48,0s3.48-1.72,4.48,0c0.99,1.72,3.48,1.72,4.48,0"/>
	<path class="st2" d="M44.2,25.12c0-0.53-0.21-1.04-0.58-1.41c-0.37-0.37-0.88-0.58-1.41-0.58s-1.04,0.21-1.41,0.58
		c-0.37,0.37-0.58,0.88-0.58,1.41s0.21,1.04,0.58,1.41c0.37,0.37,0.88,0.58,1.41,0.58s1.04-0.21,1.41-0.58S44.2,25.65,44.2,25.12
		L44.2,25.12z"/>
	<path class="st2" d="M82,25.12c0-0.53-0.21-1.04-0.58-1.41c-0.37-0.37-0.88-0.58-1.41-0.58c-0.53,0-1.04,0.21-1.41,0.58
		c-0.37,0.37-0.58,0.88-0.58,1.41s0.21,1.04,0.58,1.41c0.37,0.37,0.88,0.58,1.41,0.58c0.53,0,1.04-0.21,1.41-0.58
		C81.79,26.16,82,25.65,82,25.12L82,25.12z"/>
</g>
</svg>
